<svg viewBox="0 0 32 32" fill="none" xmlns="http://www.w3.org/2000/svg">
  <defs>
    <clipPath id="bg">
      <rect width="32" height="32" rx="6"/>
    </clipPath>
  </defs>
  <rect width="32" height="32" rx="6" fill="#1a1a1a"/>
  <g clip-path="url(#bg)">
    <rect x="15.5" y="1" width="1" height="8" fill="white"/>
    <polygon points="16.5,1.5 22,4 16.5,6.5" fill="white"/>
    <rect x="4" y="9" width="24" height="2" fill="white"/>
    <rect x="6" y="11" width="20" height="14" fill="white"/>
    <rect x="8" y="12.5" width="3.5" height="3" rx="0.5" fill="#1a1a1a"/>
    <rect x="14.25" y="12.5" width="3.5" height="3" rx="0.5" fill="#1a1a1a"/>
    <rect x="20.5" y="12.5" width="3.5" height="3" rx="0.5" fill="#1a1a1a"/>
    <rect x="8" y="17.5" width="3.5" height="3" rx="0.5" fill="#1a1a1a"/>
    <rect x="20.5" y="17.5" width="3.5" height="3" rx="0.5" fill="#1a1a1a"/>
    <path d="M14.5 25 L14.5 20.5 A1.75 1.75 0 0 0 17.5 20.5 L17.5 25 Z" fill="#1a1a1a"/>
    <rect x="4.5" y="25" width="23" height="1.5" fill="white"/>
    <rect x="2.5" y="26.5" width="27" height="1.5" fill="white"/>
    <rect x="0" y="28" width="32" height="4" fill="white"/>
  </g>
</svg>
